# xmcd
#
# Track frame offsets: 
#        150
#        11865
#        24858
#        40096
#        52684
#        67470
#        80396
#        93763
#        105403
#        119300
#
# Disc length: 1699 seconds
#
# Revision: 0
# Processed by: cddbd v1.5.2PL0 Copyright (c) Steve Scherf et al.
# Submitted via: ExactAudioCopy v0.95b4
#
DISCID=7006a10a
DTITLE=Jackie Hill and the Blueshades of Grass - If That Ain't Bluegra
DTITLE=ss
DYEAR=2009
DGENRE=Bluegrass
TTITLE0=01 Keep Your Nine Pound Hammer
TTITLE1=02 Holding Things Together
TTITLE2=03 Farmer's Son Alter Call
TTITLE3=04 Walking the Dog
TTITLE4=05 Sing Me Back Home
TTITLE5=06 Little Cabin Home On the Hill
TTITLE6=07 Ole Carolina
TTITLE7=08 You Are My Flower
TTITLE8=09 If That Ain't Bluegrass
TTITLE9=10 I'm Going Home
EXTD=
EXTT0=
EXTT1=
EXTT2=
EXTT3=
EXTT4=
EXTT5=
EXTT6=
EXTT7=
EXTT8=
EXTT9=
PLAYORDER=
